<?xml version="1.0" encoding="UTF-8"?><svg id="Layer_1" xmlns="http://www.w3.org/2000/svg" viewBox="0 0 300 300"><defs><style>.cls-1{fill:#fce8c8;}.cls-1,.cls-2{stroke-width:0px;}.cls-3{letter-spacing:0em;}.cls-4{letter-spacing:0em;}.cls-5{letter-spacing:-.02em;}.cls-6{letter-spacing:-.02em;}.cls-7{font-family:BoucherieCursive-Bold, 'Boucherie Cursive';font-size:25.86px;font-weight:700;}.cls-7,.cls-2{fill:#fff8f8;}.cls-8{letter-spacing:-.04em;}.cls-9{letter-spacing:0em;}.cls-10{letter-spacing:0em;}</style></defs><text class="cls-7" transform="translate(65.6 232.31)"><tspan class="cls-9" x="0" y="0">o</tspan><tspan class="cls-4" x="9.39" y="0">n</tspan><tspan x="19.86" y="0">e </tspan><tspan class="cls-9" x="33.98" y="0">b</tspan><tspan x="42.98" y="0">i</tspan><tspan class="cls-8" x="48.18" y="0">t</tspan><tspan class="cls-10" x="52.45" y="0">e of </tspan><tspan class="cls-6" x="89.82" y="0">h</tspan><tspan class="cls-4" x="99.93" y="0">a</tspan><tspan x="109.56" y="0">p</tspan><tspan class="cls-3" x="119.9" y="0">p</tspan><tspan class="cls-5" x="130.01" y="0">i</tspan><tspan class="cls-4" x="134.75" y="0">n</tspan><tspan x="145.22" y="0">ess</tspan></text><path class="cls-1" d="M86,99.29c-.4-.43-.76-.89-1.31-1.13-1.73-2.21-2.64-4.72-2.67-7.54-.02-2.68-.01-5.36-.02-8.04-.02-5-.05-10.01-.07-15.01.1-.19.09-.38-.02-.56.24-1.88.15-3.77.08-5.65-.12-3.4.24-6.66,2.09-9.61.35-.16.52-.47.64-.82,1.28-1.44,2.73-2.68,4.2-3.92.48-.21.99-.39,1.31-.86,2.1-1.09,4.2-2.17,6.3-3.26.31.05.54-.08.74-.29.19-.08.39-.16.58-.24.31.06.54-.07.74-.29,2.05-.69,4.1-1.38,6.15-2.06.29.02.58.01.8-.23,1.2-.28,2.4-.55,3.59-.86,3.79-.98,7.66-1.56,11.49-2.39,2.06-.16,4.11-.39,6.11-.94,3.27-.34,6.54-.68,9.8-1.03.18.09.35.07.5-.07.43,0,.87-.04,1.3-.01.81.04.88-.32.79-1.05-.63-5.07.79-9.45,4.52-13.02.51-.18.82-.57,1.13-.98,2.35-1.44,4.87-2.36,7.63-2.61.17-.02.34-.04.5-.06,2.79.21,5.5.71,7.84,2.38.49.35.82.04,1.18-.21,1.48-1.03,2.63-2.38,3.22-4.08.54-1.56,1.52-2.52,3.12-2.88.18,0,.35,0,.53,0,2.8,1.03,3.48,2.61,2.29,5.41-.24.56-.5,1.11-.76,1.66-.29.17-.37.45-.4.75-.4.52-.8,1.05-1.19,1.57-.92.81-1.82,1.66-2.78,2.42-.44.35-.46.64-.23,1.11,1.27,2.62,1.61,5.38,1.09,8.24-.13.71.11,1,.81.97.39-.01.79-.02,1.19-.03.25.14.52.15.8.07.77.27,1.57.29,2.38.22.18.01.36.03.54.04,4.05.51,8.1,1.03,12.15,1.54.24.17.5.22.79.15.08,0,.16.02.25.02.26.17.55.18.84.13.24.18.5.25.79.15.27.04.53.08.8.12.15.15.32.21.53.11.24.17.52.19.8.14.23.18.49.26.79.17.18.03.36.06.54.09.23.19.49.26.79.18.18.03.36.06.53.09.15.15.32.22.53.12,2.47.61,4.94,1.22,7.41,1.84.07.02.14.04.21.06.33.23.68.41,1.11.34,1,.51,2.06.84,3.16,1.07.15.18.33.25.55.2,1.09.58,2.24,1.02,3.42,1.37.21.24.47.35.79.34,1,.64,2.06,1.16,3.18,1.57,1.05.64,2.11,1.28,3.16,1.92.15.31.44.43.74.54h0c.03.19.12.29.33.21,1.42.95,1.97,2.29,1.81,3.96-.1.26-.19.51-.29.77-.2.25-.41.49-.61.74-1.32.84-2.67,1.19-4.05.18-4.92-3.6-10.51-5.71-16.31-7.32-12.48-3.45-25.27-4.75-38.16-5.17-14.83-.48-29.47,1.26-44.01,4.02-4.58.87-9.13,1.95-13.51,3.62-.77.14-1.51.36-2.17.82-.68.29-1.36.58-2.04.87-1.44.48-2.74,1.18-3.89,2.17-.2.13-.41.27-.61.4-.3.02-.51.17-.62.45-.84.54-1.56,1.2-2.09,2.06-.29.11-.46.31-.45.64-.05.09-.1.18-.15.27-.86.99-1.07,2.2-1.07,3.44-.01,10.6-.01,21.19,0,31.79,0,1.12.22,2.18,1.12,2.98.05.2.16.34.37.39.14.35.39.53.76.54.17.11.34.21.51.32.76.43,1.56.39,2.37.17,1.79-.14,2.77-1.24,3.17-2.87.21-.84.22-1.75.24-2.62.12-5.32.78-10.55,2.48-15.61,1.38-4.11,3.35-7.86,6.97-10.51,4.44-3.26,9.96-3.13,13.88.38,1.95,1.75,3.2,3.96,3.98,6.45.65,2.07,1.4,4.1,3.02,5.65,1.33,1.28,2.9,1.86,4.72,1.37,1.82-.49,2.72-1.88,3.11-3.61.19-.85.25-1.74.28-2.62.06-1.5.19-2.99.55-4.45,1.25-5.06,4-8.9,9-10.8,9.47-3.61,20.63,1.78,24.16,11.61.87,2.44,1.19,4.95,1.29,7.52.04.92.22,1.93,1.32,2.22,1.11.3,1.96-.25,2.62-1.13.56-.75.91-1.61,1.23-2.48,1.02-2.71,2.45-5.17,4.45-7.29,7.35-7.79,20.02-10.24,30.2-5.9,4,1.71,7.15,4.44,9.73,7.88.68,1.36,1.36,2.71,2.05,4.07,0,.5.12.96.46,1.34l.63,2.63c-.1.3-.1.58.14.82.05.43.09.86.14,1.29,0,6.1,0,12.2,0,18.3,0,.87-.08,1.75.14,2.62-.12.26-.11.53-.01.79-.22.97-.18,1.95-.12,2.94-.04.35-.08.69-.11,1.04-.2.14-.25.32-.16.55-.04.17-.07.34-.11.51-.2.14-.25.32-.18.55-.38.74-.73,1.5-1.14,2.23-1.29,2.28-3.29,3.87-5.28,5.48-.76.34-1.51.71-2.07,1.36-4.42,2.22-9.05,3.89-13.81,5.25-.3-.05-.57.03-.8.22-.17.03-.34.06-.51.09-.22-.08-.4-.02-.55.16l-.51.09c-.22-.08-.41-.02-.55.16-4.14.74-8.28,1.47-12.42,2.21-.4-.12-.74.03-1.08.21-.17,0-.35,0-.52.01-.46-.02-.96-.17-1.31.29-.45-.24-.89-.06-1.33.02-.38-.03-.81-.23-1.03.3-.34-.33-.72-.11-1.09-.07-.46-.03-.95-.19-1.33.24-.53-.19-1.06-.03-1.58.04-.46-.04-.95-.2-1.32.24-.53-.22-1.06-.05-1.59.01-.63-.02-1.29-.22-1.85.27-.62-.27-1.24-.05-1.86,0-.38-.12-.74-.04-1.09.1-.34-.11-.68-.08-1.01.05-.2-.14-.39-.12-.56.04-1.93,0-3.86,0-5.79.23-.28-.17-.56-.14-.83.03-2.38.03-4.75.05-7.13.08-.18,0-.36,0-.54,0-1.67-.03-3.34-.05-5.01-.08-.36-.18-.72-.2-1.09-.03-3.07-.12-6.15-.24-9.22-.36-.19-.01-.37-.02-.56-.03-.7-.04-1.4-.07-2.09-.11-.7-.27-1.42-.25-2.14-.17-.61-.03-1.22-.06-1.83-.09-.6-.27-1.24-.25-1.87-.17-.52-.03-1.04-.06-1.57-.09-.51-.27-1.06-.25-1.61-.17-.43-.03-.87-.06-1.3-.09-.51-.27-1.06-.26-1.61-.18-.44-.02-.88-.04-1.32-.07-.33-.22-.68-.3-1.07-.18-.43-.04-.87-.07-1.3-.11-.33-.25-.7-.24-1.08-.16-.35-.03-.69-.06-1.04-.09-.33-.23-.7-.26-1.08-.17-.35-.03-.69-.07-1.04-.1-.33-.24-.7-.26-1.08-.17-.34-.04-.69-.07-1.03-.11-.24-.23-.52-.24-.82-.15-.34-.04-.69-.07-1.03-.11-.24-.23-.52-.24-.82-.16-.34-.04-.69-.08-1.03-.12-.24-.24-.52-.24-.82-.15-.26-.03-.51-.07-.77-.1-.24-.24-.52-.25-.82-.16-.26-.03-.52-.06-.77-.09-.24-.22-.52-.21-.81-.17-.26-.04-.51-.08-.77-.12-.15-.2-.34-.21-.56-.13-.26-.04-.51-.07-.77-.11-.15-.19-.34-.22-.55-.14-.26-.04-.51-.08-.77-.12-.23-.23-.51-.26-.81-.18-.17-.03-.34-.05-.51-.08-.15-.18-.33-.23-.55-.15-3.34-.81-6.69-1.62-10.03-2.42-.15-.06-.31-.12-.46-.18-2.6-.9-5.2-1.8-7.8-2.7-.41-.41-.9-.64-1.47-.72-1.95-1.01-3.89-2.01-5.84-3.02-.21-.26-.49-.37-.81-.38-1.16-.64-2.4-1-3.72-1.04-.63-.29-1.25-.26-1.88.02-1.8.33-2.25,1.27-1.25,2.72.62.91,1.37,1.71,2.38,2.21.24.34.55.59.94.74,1.11.77,2.19,1.6,3.49,2.05.2.28.48.42.81.45,4.61,2.38,9.5,3.94,14.53,5.12.31.31.69.27,1.07.22,4.76,1.41,9.64,2.26,14.55,2.94.41.3.88.25,1.34.18,3.49.71,7.02,1.12,10.57,1.41.16.18.35.2.56.09,1.4.19,2.79.45,4.21.39.18.01.36.02.53.04,3.15.51,6.34.69,9.52.81.17.17.36.18.56.06,1.22.21,2.44.22,3.67.21.26.2.54.2.83.07.16.01.32.03.48.04.28,0,.55.01.83.02,1.05.05,2.1.09,3.15.14.35.2.72.2,1.09.06,2.37.2,4.74.24,7.11.2.8.22,1.61.21,2.42.06.51.11,1.03.14,1.54,0,.19,0,.39,0,.58,0,1.13.15,2.26.13,3.39,0,.63.15,1.26.16,1.89-.07,1.84.03,3.69,0,5.52-.19.29.13.57.14.83-.06,1.23.01,2.45,0,3.67-.19.46.08.92.17,1.36-.09,1.05-.06,2.1-.11,3.15-.17.29.11.57.12.83-.09.96-.06,1.92-.12,2.88-.17.29.11.57.11.82-.1.87-.06,1.74-.12,2.62-.18.2.1.4.11.56-.07.87-.07,1.74-.13,2.61-.2.21.11.39.1.56-.08.17-.03.34-.05.51-.08.18,0,.37-.02.55-.03.44.08.87.05,1.29-.09.21.11.39.1.56-.08.7-.06,1.39-.12,2.09-.18.21.11.4.1.56-.08.61-.05,1.22-.1,1.82-.15.21.09.4.09.56-.09.61-.06,1.21-.11,1.82-.17.21.09.4.09.56-.1.61-.06,1.21-.12,1.82-.18.21.09.4.08.56-.1.52-.05,1.04-.1,1.56-.16.21.09.4.08.56-.11.43-.05.86-.09,1.3-.14.3.08.57.02.81-.16.43-.04.87-.08,1.3-.12.21.08.4.08.56-.11.43-.05.86-.1,1.3-.15.21.08.4.08.56-.12.43-.05.86-.11,1.29-.16.21.09.4.07.55-.12.35-.04.69-.08,1.04-.12.21.08.41.07.56-.12.87-.13,1.75-.27,2.62-.4.21.08.41.07.56-.13.34-.05.69-.1,1.03-.15.21.08.4.06.55-.13,1.08-.07,2.13-.27,3.16-.6.29.05.58.05.81-.17,1.53-.14,3-.54,4.48-.93.22.08.41.04.55-.16.91-.08,1.77-.34,2.63-.63.22.07.41.03.55-.17,2.35-.52,4.66-1.17,6.87-2.15.33.04.59-.11.84-.31,2.67-.89,5.19-2.07,7.39-3.87.41-.12.67-.38.79-.78,2.83-1.98,3.22-5.22.9-7.67-1.82-1.92-4.07-3.22-6.43-4.32-.9-.42-1.69-.94-2.22-1.79-.05-.78-.1-1.57-.14-2.35.49-1.03,1.21-1.82,2.32-2.21.44,0,.88-.01,1.33-.02,1.75.86,3.51,1.72,5.26,2.58.22.43.58.67,1.04.77,1.6,1.18,3.08,2.5,4.47,3.91.1.43.35.75.74.96.32.63.64,1.27.96,1.9-.06.31.06.54.29.74.09.28.17.56.26.85-.1.38-.09.75.16,1.08,0,.79,0,1.57,0,2.36-.22.24-.23.52-.14.82-.17.53-.34,1.07-.51,1.6-.29.27-.42.61-.44.99-.16.27-.33.55-.49.82-.39.41-.86.75-1.02,1.33-1.93,2.07-4.17,3.75-6.62,5.15-2.56,1.46-5.3,2.54-8,3.69-.25.09-.5.17-.74.26-4.6,1.52-9.27,2.79-13.99,3.9-.67,0-1.29.19-1.87.52-5.04.85-10.08,1.69-15.12,2.54-.3-.03-.63-.13-.77.28-5.07.21-10.08,1.02-15.13,1.53-.15.03-.3.05-.45.08-1.68-.1-3.33.2-4.99.31-3.46.22-6.92.5-10.38.75-.17,0-.34.02-.51.03-1.84.04-3.68.08-5.52.1-.58,0-.87.19-.91.83-.17,3.07-.21,6.13.6,9.14.04.18.07.37.11.55.76,3.98,2.62,7.4,5.39,10.33.2.35.49.6.85.77,1.74,1.85,3.73,3.36,6.07,4.37.33.41.76.65,1.27.75,2.73,1.75,2.96,4.25.6,6.51-.74.71-1.6,1.23-2.5,1.71-1.72.92-3.61,1.37-5.44,2-.21-.06-.4-.03-.56.15-3.68.67-7.39,1.07-11.12,1.34-.14-.31,1.14.31-3.25.55-3.32.19-6.04-.41-7.8-.95-3.02-.58-6.06-1.1-9-2.01-.13-.19-.32-.23-.54-.2-1.38-.76-2.87-1.33-4.07-2.41-2.54-2.29-2.38-4.85.42-6.69.51-.09.93-.34,1.26-.75.85-.39,1.74-.72,2.41-1.41.32-.08.61-.21.78-.53,2.15-1.35,3.87-3.15,5.39-5.15,1.9-2.5,3.1-5.32,3.74-8.39.15-.16.17-.35.11-.55.82-3.05.75-6.16.58-9.27-.03-.51-.29-.67-.76-.68-3.11-.08-6.22-.17-9.33-.25-.19-.01-.37-.02-.56-.04-5.11-.36-10.22-.72-15.32-1.08-.18-.02-.36-.03-.54-.05-1.22-.15-2.44-.35-3.67-.44-3.82-.27-7.56-1.24-11.42-1.16-.23-.16-.39-.49-.76-.35-4.16-.76-8.31-1.53-12.47-2.29-1.08-.52-2.23-.75-3.41-.86-5.11-1.44-10.19-2.99-15.1-5.04-.22-.25-.5-.36-.82-.4-.34-.19-.68-.39-1.03-.57-4.32-2.14-8.28-4.75-11.13-8.75.01-.26-.07-.46-.32-.57-.18-.42-.36-.85-.53-1.27.07-.23,0-.41-.21-.54-.03-.17-.07-.34-.1-.51.1-.22.06-.41-.14-.55,0-.79,0-1.58.01-2.37.2-.15.22-.34.13-.55,1.11-3.19,3.59-4.67,6.7-5.35.3.09.58.06.82-.15.96,0,1.93,0,2.89,0,.24.22.52.23.82.13.26.04.52.07.77.11.15.18.33.23.55.14.25.05.51.1.76.15.22.24.5.27.8.25.38.14.76.29,1.13.43.2.21.43.35.74.29.96.51,1.94,1,2.89,1.54,2.9,1.63,5.89,3.03,9.08,4,.21.2.44.33.74.25.17.04.34.09.51.13.21.24.49.28.78.26,4.57,1.59,9.26,2.65,14.03,3.43.56.37,1.2.28,1.82.31.43.2.89.22,1.36.2,1.2.46,2.46.59,3.73.68.96.18,1.91.4,2.89.38.16.18.35.2.56.1,1.22.23,2.43.43,3.68.43.16.18.35.2.56.09.61.06,1.21.12,1.82.17.34.26.71.18,1.09.12.52.05,1.04.1,1.56.15.16.18.35.19.56.09.7.05,1.39.11,2.09.16.17.17.36.19.56.07.86.21,1.74.21,2.61.2.26.21.53.21.82.09.96.06,1.92.12,2.88.18.26.2.54.2.83.08,1.14.17,2.27.24,3.42.15.52.2,1.05.3,1.6.15,1.4.05,2.81.1,4.21.15.7.25,1.42.23,2.15.11,2.64.13,5.27.25,7.92.09.18,0,.36,0,.54,0,2.73.21,5.46.05,8.18-.09.64.11,1.27.14,1.88-.12,1.14-.05,2.27-.1,3.41-.15.46.11.92.12,1.35-.12.17-.02.34-.04.51-.06.18,0,.36-.01.55-.02.61.1,1.22.05,1.82-.09.29.12.57.12.82-.09.78-.05,1.57-.11,2.35-.16.29.11.57.1.82-.11.7-.06,1.39-.11,2.09-.17.21.11.4.09.56-.08,1.42,0,2.81-.22,4.21-.43.21.1.4.08.56-.1l1.56-.17c.39.12.73-.06,1.08-.18,1.99-.11,3.95-.47,5.91-.86,1.06-.07,2.11-.21,3.09-.65.34-.05.69-.1,1.03-.15.22.1.4.06.55-.12.26-.04.51-.08.77-.12.22.08.4.04.55-.15,1.1-.1,2.16-.38,3.19-.75.37-.02.75.01,1.06-.27.82-.09,1.6-.33,2.35-.65.23.07.41,0,.54-.19.66-.06,1.26-.29,1.84-.59.23.07.41,0,.54-.21,1.67-.44,3.22-1.16,4.73-1.98,1.82-.98,3.62-2,4.84-3.77,1.44-1.34,1.73-3.08,1.73-4.93,0-5.5.03-11-.02-16.5-.01-1.26.22-2.54-.12-3.79.06-.7,0-1.4-.16-2.09.12-.29.13-.57-.1-.83.05-.31-.01-.6-.19-.86-.1-.92-.28-1.83-.89-2.57-1.15-3.05-3.23-5.26-6.1-6.75-.37-.35-.74-.68-1.28-.74-.87-.31-1.71-.72-2.61-.89-1.81-.35-3.54-1.17-5.45-1.02-.14,0-.28,0-.43,0-3.46-.22-6.75.4-9.86,1.97-.43.02-.78.2-1.05.54-1.81.73-3.28,1.9-4.54,3.37-.45.28-.8.65-.97,1.16-1.11,1.07-1.71,2.46-2.2,3.85-.87,2.51-2.21,4.65-4.25,6.36-.69.39-1.38.77-2.06,1.16-.7.14-1.4.27-2.1.41-.21-.12-.4-.11-.56.07-.26,0-.51,0-.77,0-.16-.18-.35-.19-.56-.09-.61-.14-1.22-.28-1.83-.42-.61-.36-1.23-.71-1.84-1.07-1.02-.92-1.92-1.92-2.55-3.17-.9-1.79-.97-3.73-1.13-5.66-.17-2.04-.68-3.98-1.84-5.71-.07-.38-.2-.71-.59-.88-2-3.08-4.77-4.92-8.45-5.34-.18-.02-.37-.05-.55-.07-4.19-.96-8.5,1.46-9.73,5.48-.24.23-.34.51-.3.84-.52,1.24-.56,2.57-.59,3.88-.11,4.2-1.49,7.81-4.8,10.54-.72.32-1.45.61-2.05,1.14-1.13.24-2.27.48-3.4.72-.28-.13-.56-.13-.84,0-.61-.06-1.22-.11-1.82-.17-.15-.18-.34-.21-.55-.13-.49-.24-1-.4-1.55-.42-.48-.36-.96-.71-1.56-.85-1.31-.88-2.45-1.94-3.54-3.07-.14-.35-.34-.66-.71-.81-1.25-2.18-2.15-4.51-2.91-6.91-.19-.62-.54-1.21-.9-1.75-1.67-2.5-4.1-3.03-6.62-1.4-2.46,1.59-3.74,4.01-4.62,6.7-.36.45-.53.96-.51,1.54-.04.17-.07.34-.11.5-.92,2.21-1.28,4.53-1.44,6.9-.18.51-.23,1.03-.16,1.56-.2.26-.22.53-.09.82-.21,1.04-.25,2.09-.17,3.14-.21.71-.2,1.42-.11,2.14-.13.79-.26,1.57-.38,2.36-.19.14-.24.32-.16.55-.52,1.41-1.37,2.63-2.2,3.87-.32.04-.48.25-.57.54-1.45,1.01-3,1.84-4.73,2.28-.3-.08-.58-.07-.82.15-1.14,0-2.28,0-3.42-.01-.16-.19-.35-.2-.56-.11-.25-.06-.51-.12-.76-.17-.22-.25-.5-.25-.8-.22-.96-.53-1.92-1.06-2.87-1.59ZM145.42,161.63c-.37.2-.6.52-.8.87-1.47,1.16-2.94,2.33-4.41,3.49-.28.04-.52.17-.47.48.03.19.25.19.43.14,4.03.81,8.07,1.49,12.2,1.43.18,0,.37,0,.55.01,5.12.31,10.14-.42,15.14-1.41.22.04.5-.02.53-.21.04-.33-.24-.49-.53-.57-1.39-1.13-2.78-2.26-4.18-3.39-.25-.38-.48-.78-.92-.99-1.69-1.98-3.23-4.06-4.44-6.37-1.4-2.68-2.15-5.57-2.93-8.45-.29-3.23-.69-6.45-.39-9.7.07-.72-.34-.77-.89-.77-.54,0-.95.05-.9.77.24,3.25-.18,6.47-.47,9.7-.24.5-.3,1.03-.33,1.58-.4.54-.5,1.18-.56,1.83-1.39,4.32-3.55,8.2-6.63,11.55ZM149.5,24.21c-3.77,1.65-5.62,5.52-4.31,9.04.18.5.32,1.03,1.04.96.92-.08,1.83-.13,2.75-.2,3.16.05,6.33.05,9.49.19,1.03.04,1.43-.3,1.58-1.24.48-3.01-.27-5.61-2.65-7.58-2.37-1.95-5.03-2.36-7.9-1.17Z"/><path class="cls-2" d="M101.57,47.73c4.38-1.66,8.92-2.74,13.51-3.62,14.54-2.76,29.18-4.5,44.01-4.02,12.89.41,25.68,1.71,38.16,5.17,5.81,1.61,11.39,3.72,16.31,7.32,1.38,1.01,2.73.66,4.05-.18,1.78,2.2,2.72,4.64,2.56,7.54-.13,2.28-.01,4.57,0,6.85,0,.27.01.53.02.8-.06.22-.11.44-.17.67-2.58-3.44-5.72-6.17-9.73-7.88-10.18-4.34-22.86-1.89-30.2,5.9-1.99,2.11-3.43,4.57-4.45,7.29-.33.87-.67,1.73-1.23,2.48-.66.88-1.5,1.42-2.62,1.13-1.1-.29-1.28-1.3-1.32-2.22-.1-2.57-.41-5.09-1.29-7.52-3.53-9.83-14.7-15.23-24.16-11.61-5,1.91-7.75,5.75-9,10.8-.36,1.46-.49,2.95-.55,4.45-.03.88-.09,1.77-.28,2.62-.39,1.73-1.29,3.12-3.11,3.61-1.82.49-3.39-.09-4.72-1.37-1.62-1.55-2.37-3.58-3.02-5.65-.78-2.49-2.03-4.7-3.98-6.45-3.92-3.51-9.44-3.64-13.88-.38-3.62,2.65-5.58,6.4-6.97,10.51-1.7,5.06-2.37,10.29-2.48,15.61-.02.88-.03,1.78-.24,2.62-.4,1.63-1.37,2.73-3.17,2.87,0-9.12.02-18.25.01-27.37,0-3.22-.05-6.43-.08-9.65.03-.35.06-.71.09-1.06.21-.12.25-.31.18-.53.43-1.65,1.36-3.05,2.32-4.42.5-.18.81-.54.99-1.03.8-.63,1.6-1.27,2.4-1.9.8-.28,1.5-.71,2.05-1.36Z"/><path class="cls-2" d="M65.62,83.16c-.07-.18-.14-.35-.21-.53-.11-.1-.21-.2-.31-.3-.74-2.25-1.79-4.41-1.99-6.82.09-.22.05-.4-.14-.54,0-1.41,0-2.82,0-4.23.2-.14.24-.32.14-.54.14-.88.29-1.75.43-2.63.19-.14.2-.34.17-.55.14-1,.6-1.9,1-2.81.37-.83.92-1.21,1.79-.4,1.05.96,2.2,1.82,3.3,2.72.09.45.37.7.82.77,0,0,0,0,0,0,.71,1.27,1.52,2.47,2.64,3.43,0,0,0,0,0,0,.02.31.19.5.47.62.03.15.05.29.08.44,0,.37.15.65.49.81.39.78.77,1.57,1.16,2.35.6,1.76,1.2,3.53,1.79,5.29.03.18.05.35.08.53-.09.3-.1.58.19.79.02.18.03.36.05.53-.09.3-.09.59.2.8,0,.18,0,.36.01.54.02.35.03.7.05,1.05-.02.74-.04,1.48-.07,2.22-.01.43.07.91-.54,1.02-1.04-1.01-2.07-2.01-3.11-3.02-1.51-2.2-3.05-4.39-4.2-6.82-.11-.23-.21-.55-.54-.46-.37.11-.18.42-.15.66.12.87.12,1.77.38,2.59.88,2.71,1.9,5.38,4.11,7.36.03.14.06.28.1.42-.01.33.17.5.47.57.1.16.2.33.29.49-.09.27-.17.53-.26.8-.08-.02-.17-.04-.25-.07-.22-.41-.62-.47-1.03-.5-.73-.48-1.45-.98-2.21-1.43-2.18-1.28-3.54-3.39-5.22-5.17Z"/><path class="cls-2" d="M233.94,66.83c2.12-1.03,4.09-2.39,6.49-2.78.73-.12,1.45-.31,2.18-.41,1.56-.21,1.87.14,1.48,1.72-.12.48-.13.95-.14,1.43-.07.26-.15.52-.22.79-1.67,6.1-5,11.06-10.12,14.81-.45.22-.94.39-1.1.95-.09.01-.17.03-.25.06-.5.1-1.01.2-1.51.3,0-.09-.02-.18-.03-.27.08-.26.15-.53.23-.79-.02-1.13.66-2.08.84-3.16.37-.33.54-.75.54-1.24.79-1.93,2.16-3.56,2.99-5.49-1.36.53-2.43,1.37-3.27,2.5-.35.43-.7.87-1.06,1.3-1.22,1.92-2.46,3.83-2.95,6.1-.17,0-.34,0-.52,0-.42-2.98-.26-5.9.95-8.71.78-1.83,2.02-3.36,3.06-5.03.8-.69,1.6-1.39,2.39-2.08Z"/><path class="cls-2" d="M57.18,94.49c-1.04-1.71-2.41-3.21-3.16-5.1-.5-1.26-.41-1.51.98-1.66.78-.08,1.57-.09,2.36-.14.19.01.38.03.57.04,5.76.24,10.69,2.39,14.79,6.46,0,.12,0,.24,0,.37-3.2.39-6.28-.33-9.38-1.05,2.48,2.56,5.77,3.06,9.34,3.68-1.67.89-3.1,1.25-4.64,1.24-.74.34-1.47-.11-2.21-.02-3.04.07-5.35-1.55-7.63-3.26-.25-.32-.62-.45-1-.56Z"/><path class="cls-2" d="M246.72,84.76c-.76,2.02-2.38,3.36-3.97,4.63-3.03,2.42-6.54,3.7-10.44,3.88-.27,0-.54,0-.82.01-.47-.16-1.22.23-1.41-.3-.19-.51.55-.78.85-1.17.19-.24.42-.44.63-.66.34-.07.59-.24.74-.56,1.59-.92,3.03-2.07,4.65-2.97-1.76-.28-3.25.25-4.65,1.11-.26.22-.52.44-.77.66-1.19.18-1.81,1.43-3.16,1.68.65-2.04,1.92-3.5,3.23-4.92.3-.09.56-.23.7-.52.88-.42,1.62-1.11,2.59-1.4.5-.15,1.15-.17,1.42-.79.97.17,1.89-.21,2.85-.27,1.72-.12,3.38.15,5.04.53.84.35,1.69.7,2.53,1.05Z"/><path class="cls-2" d="M149.5,24.21c2.87-1.19,5.53-.78,7.9,1.17,2.39,1.96,3.13,4.57,2.65,7.58-.15.94-.55,1.29-1.58,1.24-3.16-.14-6.32-.14-9.49-.19-1.01-2.96-1.12-5.9.22-8.8.14-.31.19-.66.29-1Z"/><path class="cls-2" d="M17.34,190.04c.11.12.24.18.4.18.51.33.57.9.74,1.41-.14,1.47-.03,2.94-.06,4.41-.01.84,0,.84.87.73,1.93.02,3.85.03,5.78.05.32,0,.48-.12.47-.45-.04-1.06.07-2.11-.07-3.17.03-.62.06-1.24.08-1.86.12-.26.24-.52.36-.78v-.05c.29-.18.57-.37.85-.55.09-.02.18-.03.28-.05.19,0,.38,0,.57,0,.09.02.18.03.28.05.07.11.17.14.29.12.46.32.78.74.94,1.28,0,4.73,0,9.46,0,14.2,0,1.77-.91,2.48-2.62,2.04-.19-.15-.38-.29-.57-.44-.12-.29-.24-.57-.37-.86,0-1.81,0-3.62,0-5.42,0-.42-.19-.51-.56-.5-2,.01-4,.02-6,0-.47,0-.6.16-.6.61.02,1.5.01,3.01,0,4.51,0,1.84-.86,2.52-2.65,2.1-.39-.09-.52-.44-.73-.72-.06-.32-.15-.64-.16-.96-.02-1.45-.01-2.91-.01-4.36,0-3.4-.01-6.8-.02-10.21.48-1.24,1.08-1.56,2.49-1.32Z"/><path class="cls-2" d="M287.63,189.92c.28,0,.57.01.85.02.71.29,1.17.8,1.33,1.56-.01,1.01-.03,2.01-.04,3.02-.02,3.7-1.68,6.13-5.13,7.42-.37.14-.51.33-.5.72.03.94.02,1.88.03,2.82,0,1.86-.8,2.52-2.61,2.14-.42-.29-.73-.66-.91-1.14.05-.16.04-.3-.07-.43.04-.99.05-1.98-.03-2.97.02-.39.27-.87-.32-1.06-1.21-.38-2.23-1.07-3.17-1.89-.07-.12-.14-.25-.29-.28-.04-.05-.08-.1-.12-.16-.01-.17-.11-.28-.26-.35-.11-.16-.22-.33-.32-.49,0-.17-.08-.29-.22-.38-.03-.06-.06-.12-.09-.18-.18-.47-.36-.94-.54-1.41l-.05-.27c.05-.12.04-.22-.07-.3-.02-.14-.04-.28-.06-.41,0-1.56,0-3.11,0-4.67.04-.11.08-.21.11-.32.13-.09.22-.21.24-.37l.28-.27c.74-.39,1.49-.38,2.24,0,.1.09.19.18.29.27.02.16.1.28.24.36.07.25.14.5.22.75-.11,1.35-.12,2.71.02,4.05.07.71.31,1.41.93,1.89.03.09.09.15.19.13.24.43.64.62,1.1.72.07.11.17.14.29.1.09.02.18.04.27.06.08.11.18.12.29.07.47.11.94.11,1.4,0,.12.05.21.03.29-.08l.27-.06c.12.04.22,0,.28-.1,1-.32,1.64-.99,1.94-1.99.12-.11.17-.25.12-.41.02-.09.04-.18.06-.28.12-.13.12-.28.05-.43.12-.56.1-1.12.03-1.68,0-.14,0-.29,0-.43.02-.37.06-.75.04-1.12-.06-1.08.38-1.81,1.43-2.15Z"/><path class="cls-2" d="M178.09,190.06c.15.07.29.05.43,0,.14,0,.28.02.42.03.28.11.56.12.86.09l.27.06c.21.16.46.2.72.22.1.04.21.09.31.13.1.13.23.19.39.18,1.04.63,1.77,1.54,2.36,2.58.02.05.03.09.05.14.02.09.03.17.05.26.11.93.31,1.94-.19,2.75-.63,1.01-.42,1.73.38,2.43.03.03.08.04.12.06.22.42.43.84.65,1.26,0,.07-.03.14,0,.21.96,3.38-1.41,6.74-5.06,7.06-2.72.23-5.48.22-8.21-.05-.54-.32-.75-.84-.91-1.41.01-2.53.03-5.06.03-7.59,0-2.32,0-4.64-.01-6.96.18-.62.57-1.05,1.15-1.33.16.03.3,0,.43-.09,1.93,0,3.86-.01,5.79-.02ZM178.09,196.26c.3.01.6.05.9.03.92-.06,1.27-.38,1.43-1.26,0-.82-.24-1.15-1.05-1.29-1.07-.19-2.15-.07-3.22-.08-1.89-.02-1.86,0-1.89,1.9-.01.7.23.88.86.71.99.06,1.98.07,2.97,0ZM181.42,202.5c.09-.18.11-.36.03-.55.07-.15.07-.3,0-.45-.25-1.06-.88-1.56-2.23-1.61-1.48-.05-2.96-.01-4.43-.03-.4,0-.54.15-.53.54.02.96.04,1.93,0,2.88-.04.7.24.88.86.71,1.03.06,2.06.09,3.09-.02.1.06.2.07.31.01,1.5.15,2.35-.22,2.8-1.2.11-.07.14-.17.1-.29Z"/><path class="cls-2" d="M85.2,190.05c.1,0,.2,0,.29,0,.75,0,1.5.02,2.25.03.28.11.56.12.86.09.09.02.18.04.27.06.08.1.18.13.29.08.25.09.49.18.74.27.1.13.23.19.39.18.97.61,1.73,1.42,2.26,2.43-.04.13-.03.24.1.31.31,1.2.36,2.41-.29,3.49-.41.69-.26,1.09.28,1.51.09.07.17.15.26.23.14.36.35.68.59.98-.02.17.06.3.17.41.11.74.31,1.46.24,2.22-.29,2.91-2.72,5.16-5.75,5.23-2.04.05-4.08,0-6.12.02-.54,0-1.07-.01-1.6-.17-.74-.44-.91-1.16-.95-1.94.09-1.28.1-2.55,0-3.83.08-2.68.07-5.35,0-8.03.11-.71.06-1.42.05-2.13.19-.68.64-1.12,1.28-1.37.11.05.21.04.29-.04,1.36,0,2.73.07,4.09-.03ZM85.21,196.26c.95.12,1.9.11,2.85.01.88-.09,1.19-.5,1.19-1.37.08-.76-.41-1.05-1.03-1.16-1.07-.19-2.15-.07-3.23-.08-1.89-.02-1.86,0-1.9,1.9-.01.68.21.9.85.72.43.05.85.08,1.28-.02ZM83.94,203.99c.43.07.85.06,1.28,0,.08,0,.17,0,.25,0,1.05.05,2.1.11,3.13-.05.91-.14,1.55-.62,1.68-1.6.25-1.46-.55-2.39-2.22-2.45-1.48-.06-2.96,0-4.44-.03-.46,0-.55.2-.54.6.02.94.04,1.88,0,2.82-.04.69.21.9.86.71Z"/><path class="cls-2" d="M203.46,191.07c.12.16.27.25.46.3.07.06.14.11.21.17.11.2.27.33.49.41.09.18.23.31.41.41.03.16.12.27.28.33.14.18.27.35.41.53.19.43.39.85.69,1.22.02.06.05.12.07.18-.04.09-.01.15.07.19,0,.04,0,.07.04.1.39,1.51.35,3.06.34,4.6,0,2.04,0,4.08,0,6.12,0,1.83-.91,2.53-2.65,2.04-.23-.21-.46-.41-.69-.62-.39-.93-.13-1.91-.26-2.86.01-.28.02-.56.04-.84.03-.35-.11-.51-.48-.51-2.23,0-4.45.01-6.68,0-.42,0-.51.21-.5.57.02.7,0,1.4,0,2.11,0,1.91-.79,2.56-2.63,2.19-.5-.21-.79-.59-.9-1.11.04-.11.05-.22-.07-.3,0-1.47.1-2.94-.06-4.41,0,0-.02-.03-.02-.03.2-1.62.08-3.24.06-4.86.15-.18.12-.38.07-.58.25-.96.33-1.97.93-2.81.12-.04.15-.13.12-.25.18-.25.37-.49.55-.74.08-.11.31-.07.29-.28.19-.18.38-.36.57-.54.17-.02.28-.12.34-.27.04,0,.07-.02.07-.06.31-.21.62-.42.94-.62.16-.08.32-.15.47-.23,1.37-.52,2.79-.67,4.25-.57.09.02.18.03.27.05.8.27,1.61.54,2.37.91.04.02.09.04.13.06ZM203.26,196.72c.08-.1.06-.18-.04-.24-.04-.32-.12-.62-.31-.88-.49-1.3-1.82-2.06-3.52-2.01-1.74.06-3.01.95-3.48,2.46-.25.8-.15,1.63-.21,2.44-.05.7.18.96.87.77,2.12.01,4.25.02,6.37.04.3,0,.43-.11.41-.41-.03-.72.06-1.45-.08-2.16Z"/><path class="cls-2" d="M254.36,190.86c.18-.11.35-.25.45-.44.16-.08.32-.17.48-.25.16.03.3,0,.43-.09,2.07,0,4.14,0,6.22,0,.47.07.94.15,1.41.22.09.02.19.04.28.06.08.09.17.13.29.09.11.04.21.09.32.13.1.13.23.18.39.17,1.08.61,2.01,1.37,2.64,2.47.19.15.07.45.29.58.87,2.72.29,5.01-1.67,6.72-.41.36-1.21.47-1.21,1.03,0,.49.5.98.78,1.47.02.03.07.05.11.07l1.36,2.24c.08,1.31-.3,2-1.23,2.29-.53.16-1.01-.01-1.5-.15-.28-.34-.56-.67-.84-1.01-.09-.35-.29-.62-.55-.85-.38-.82-.9-1.56-1.4-2.31-.33-.93-.87-1.51-1.96-1.3-.36.07-.75.04-1.12,0-.51-.05-.64.18-.63.66.03.96.01,1.92,0,2.88,0,1.82-.89,2.5-2.66,2.06-.13-.09-.27-.18-.4-.27-.01-.15-.11-.23-.25-.28-.21-.51-.26-1.04-.26-1.59,0-1.17-.03-2.35-.05-3.52.07-.08.08-.17.02-.26.01-1.38.05-2.76.03-4.14-.02-1.45.09-2.9-.07-4.34.17-.77-.06-1.59.3-2.33ZM264.28,195.31c-.28-1.01-1.02-1.57-2.33-1.63-1.24-.06-2.48,0-3.73-.04-.47-.01-.54.2-.53.6.02,1.15.04,2.3,0,3.44-.03.69.21.9.85.72,1.23.05,2.46.11,3.68-.04,1.7-.2,2.52-1.4,2.06-3.05Z"/><path class="cls-2" d="M42.58,190.3c.33-.07.66-.15.99-.22.14-.02.28-.04.41-.06.62,0,1.24,0,1.86,0l.56.05c.13.1.27.14.43.09.09.02.18.04.27.06.08.09.18.12.29.07.09.02.18.05.27.07.07.1.17.14.29.11.1.04.21.08.31.13.11.12.23.18.39.16.85.45,1.66.97,2.4,1.59.09.25.29.38.52.49.05.16.14.3.29.38.1.22.22.42.43.56.29.52.58,1.03.87,1.55.08.29.17.58.25.87.95,3.5.26,6.62-2.4,9.11-2.67,2.49-5.82,2.96-9.25,1.78-1.25-.43-2.25-1.24-3.24-2.07-.16-.17-.31-.35-.47-.52-.02-.16-.11-.27-.26-.34-.4-.73-.79-1.46-1.19-2.19.03-.12.03-.22-.09-.29-.13-.65-.27-1.31-.4-1.96.09-.11.1-.21-.03-.3.06-.38.07-.75-.01-1.13.15-.13.12-.28.05-.44.12-.56.23-1.13.35-1.69.1-.07.14-.16.1-.28.39-.76.77-1.51,1.16-2.27.53-.56,1.06-1.11,1.59-1.67.17-.02.28-.11.35-.26.1-.01.18-.05.21-.16.26-.07.48-.19.64-.4h.04s.02-.03.02-.03c.13.01.22-.03.28-.15.17,0,.3-.08.42-.18.16.02.29-.04.39-.16l.32-.11c.12.04.22,0,.29-.1.09-.02.19-.04.28-.06ZM41.16,202.53c.4.54.93.89,1.57,1.1.11.15.26.16.43.13.12.11.26.16.42.14.08.08.17.13.29.07.22.1.46.1.7.07.28.11.56.1.84,0,.24.02.47.03.7-.07.35,0,.66-.09.96-.26.42-.15.84-.31,1.16-.65.16-.02.27-.11.32-.26.26-.12.42-.32.54-.57.22-.13.35-.33.4-.58.18-.22.31-.47.37-.75.12-.11.16-.24.11-.39.03-.09.05-.18.08-.27.1-.08.13-.17.07-.29.08-.18.09-.37.06-.56.14-.37.14-.74,0-1.11.03-.19.02-.38-.06-.56.06-.12.03-.21-.07-.29-.03-.09-.05-.18-.08-.28.05-.15,0-.28-.12-.39-.02-.19-.1-.34-.23-.47,0-.15-.05-.27-.2-.33v-.03c.02-.16-.09-.26-.17-.37-1.32-1.7-3.12-2.19-5.16-1.92-1.86.24-3.29,1.22-3.95,3-.69,1.84-.67,3.68.57,5.35.1.22.19.45.45.53Z"/><path class="cls-2" d="M218.58,196.79c.72.06,1.44.12,2.16-.04.38.11.75.04,1.11-.08.31,0,.57-.09.77-.35.38-.2.6-.52.71-.93.13-.1.16-.23.11-.39.11-.22.12-.46.09-.7.13-.69.06-1.38.06-2.07,0-.62.06-1.2.38-1.73.05-.05.1-.1.14-.15.93-.6,1.82-.52,2.67.18-.02.17.09.27.17.39.07.19.14.39.2.58,0,.7-.03,1.4-.02,2.11,0,1.11-.09,2.19-.55,3.23-.18.4-.69.76-.53,1.16.16.39.63.66.96.98.26.43.52.86.77,1.29.13.35.3.69.38,1.05.36,1.66.24,3.35.15,5.02-.05.83-.83,1.4-1.68,1.38-.32,0-.64-.09-.96-.14-.67-.51-.91-1.19-.88-2.01.03-.79.01-1.59,0-2.38,0-.44.03-.89-.22-1.29-.26-.93-.92-1.46-2.03-1.5-1.45-.05-2.91,0-4.37-.03-.48,0-.52.24-.52.62.01,1.5,0,3.01,0,4.51,0,1.89-.89,2.56-2.69,2.07-.67-.49-.9-1.15-.88-1.96.02-1.17-.02-2.34-.03-3.52.07-.15.05-.29,0-.43.08-2.68.07-5.36,0-8.03.06-.14.06-.29,0-.43.01-.61.03-1.22.04-1.83.1-.08.12-.18.08-.29.29-.57.72-.97,1.35-1.13.08.08.16.07.22-.03.12,0,.23,0,.35.01.07.09.15.1.24.03.83.24,1.21.86,1.4,1.65-.16,1.46-.04,2.92-.07,4.38-.02.86,0,.86.91.8Z"/><path class="cls-2" d="M113.02,190.11c.19-.02.37-.03.56-.05,2.54.09,5.09.07,7.63,0,.19.01.37.02.56.03.47.17.89.43,1.23.79v.04s.04.02.04.02c.06.19.12.38.18.58-.02,1.57-.6,2.13-2.19,2.14-1.74,0-3.48,0-5.21,0-.41,0-.61.1-.59.55.03.7.01,1.41,0,2.11,0,.28.03.51.4.52,1.62.02,3.23.08,4.85-.03.16.02.32.05.47.07.04.08.09.16.21.14.49.11.73.49.96.87.28,1.8-.35,2.51-2.21,2.51-1.34,0-2.68.02-4.02-.01-.54-.01-.7.17-.67.69.04.73.05,1.46,0,2.18-.06.74.24.93.9.75.94.05,1.88.07,2.82-.01.15.06.3.07.44,0,.61.01,1.22.03,1.82.04,1.17.02,1.62.34,2.04,1.45-.08,1.58-.64,2.11-2.23,2.11-1.89,0-3.79,0-5.68,0-.91,0-1.82.09-2.72-.14-.56-.17-.65-.71-.91-1.12.04-.16.04-.31-.08-.44.04-1.27.07-2.54-.01-3.81.07-.14.06-.28,0-.42.08-2.68.08-5.36,0-8.04.07-.14.07-.28,0-.42.08-.47.06-.94.02-1.41.12-.13.12-.28.08-.44.2-.51.53-.9,1.03-1.15.12.03.22,0,.29-.09Z"/><path class="cls-2" d="M135.88,190.03c.66,0,1.32,0,1.99-.01.14.02.28.04.42.06.13.1.27.13.43.09.09.02.18.04.27.06.21.15.45.23.71.24.25.12.5.25.76.37.09.14.21.21.37.2.73.58,1.59,1.06,1.75,2.12-.43,2.01-1.71,2.43-3.35,1.15-1.23-.96-2.62-.92-4.01-.48-.61.19-.81.75-.81,1.35,0,.6.2,1.1.85,1.29.12.12.26.2.43.19.11.17.27.19.45.15.31.1.62.21.94.29,1.2.31,2.43.53,3.59,1.02,1.27.53,2.23,1.36,2.71,2.68.01.14.02.28.04.42.33,1.85-.12,3.47-1.55,4.71-2.05,1.78-4.45,2.04-7,1.44-1.33-.32-2.4-1.12-3.45-1.96-.82-.9-1.45-1.85-.62-3.08.24-.18.48-.36.72-.54l.41-.07c.19.06.39.06.58.01.09.02.18.03.27.05.23.16.46.31.68.47.61.83,1.33,1.52,2.42,1.66.08.11.18.12.29.08.84.19,1.69.15,2.5-.11.65-.21,1.2-.57,1.19-1.38.07-.76-.17-1.06-1.26-1.34-2.27-.57-4.59-.98-6.54-2.43-1.24-1.52-1.52-3.23-1.03-5.1.12-.13.17-.28.16-.45.67-1.26,1.67-2.16,2.97-2.73.25-.03.5-.07.72-.23.09-.02.18-.04.27-.07.12.05.21.02.29-.08.14-.02.28-.04.42-.06Z"/><path class="cls-2" d="M60.88,193.19c.02-.56.03-1.12.06-1.69.04-.79.68-1.44,1.49-1.55.9-.12,1.62.31,1.9,1.17.15.35.15.72.15,1.1,0,3.68.01,7.37-.01,11.05,0,.66.17.93.84.71.98.08,1.96.08,2.95,0,.1,0,.2,0,.3,0,.63.02,1.26.06,1.88.05.9-.02,1.6.27,1.94,1.17-.03.1,0,.16.1.19.02.08.04.16.06.24-.19,1.51-.72,1.98-2.25,1.98-2.32,0-4.63,0-6.95,0-.52,0-1.03-.02-1.52-.18-.67-.48-.92-1.13-.91-1.94.02-1.12-.02-2.25-.03-3.38.06-.15.05-.29,0-.44.07-2.68.07-5.35,0-8.03.06-.15.06-.29,0-.44Z"/><path class="cls-2" d="M151.47,195.26c-.68-.34-.88-.94-.95-1.63.06-.15.06-.29,0-.44.01-.49.06-.97.03-1.46-.05-.9.31-1.52,1.15-1.86.49-.04.94.08,1.39.26.31.36.5.77.59,1.23-.02.65-.04,1.3-.05,1.95-.01,1.56-.61,2.11-2.16,1.94Z"/><path class="cls-2" d="M104.7,191.51c-.01,2.02-.03,4.03-.04,6.05,0,2.63,0,5.26,0,7.89,0,2.01-1.04,2.72-2.9,2-.47-.35-.59-.87-.68-1.41,0-4.11.02-8.22.03-12.33,0-.63.02-1.27,0-1.9-.02-.55.24-.98.47-1.44.14-.1.28-.2.42-.31.17.05.3-.04.43-.14.28,0,.57,0,.85.01.08.09.18.12.29.09.62.31.97.82,1.13,1.48Z"/><path class="cls-2" d="M247.01,205.61c-.21,1.52-.72,1.97-2.27,1.97-2.3,0-4.61,0-6.91,0-.52,0-1.03-.02-1.53-.17-.67-.48-.93-1.13-.91-1.95.02-1.13-.02-2.25-.03-3.38.06-.15.05-.29,0-.44.07-2.68.06-5.35,0-8.03.06-.15.06-.29,0-.44.01-.35.05-.69.03-1.04-.04-.91.32-1.57,1.14-1.97.16.03.3,0,.43-.1.09,0,.19-.01.28-.02.15.07.29.04.43-.01,2.59.01,5.17.03,7.76.04.23.06.45.13.68.19.45.36.76.8.9,1.37-.16,1.52-.7,2-2.22,2-1.73,0-3.47.02-5.2,0-.49,0-.67.15-.64.64.04.56,0,1.12,0,1.69q0,.91.96.81c1.31.01,2.62.04,3.93.03.72,0,1.34.17,1.83.7.68,1.9-.02,2.87-2.06,2.87-1.29,0-2.59.03-3.88-.01-.6-.02-.86.12-.8.77.06.68.01,1.36.01,2.04q0,.9.95.82c.26,0,.51.02.77.03,1.73.04,3.46-.09,5.18.08.04.1.12.14.22.1.49.35.79.83.93,1.41Z"/><path class="cls-1" d="M15.89,188.59c.11.12.24.18.4.18.51.33.57.9.74,1.41-.14,1.47-.03,2.94-.06,4.41-.01.84,0,.84.87.73,1.93.02,3.85.03,5.78.05.32,0,.48-.12.47-.45-.04-1.06.07-2.11-.07-3.17.03-.62.06-1.24.08-1.86.12-.26.24-.52.36-.78v-.05c.29-.18.57-.37.85-.55.09-.02.18-.03.28-.05.19,0,.38,0,.57,0,.09.02.18.03.28.05.07.11.17.14.29.12.46.32.78.74.94,1.28,0,4.73,0,9.46,0,14.2,0,1.77-.91,2.48-2.62,2.04-.19-.15-.38-.29-.57-.44-.12-.29-.24-.57-.37-.86,0-1.81,0-3.62,0-5.42,0-.42-.19-.51-.56-.5-2,.01-4,.02-6,0-.47,0-.6.16-.6.61.02,1.5.01,3.01,0,4.51,0,1.84-.86,2.52-2.65,2.1-.39-.09-.52-.44-.73-.72-.06-.32-.15-.64-.16-.96-.02-1.45-.01-2.91-.01-4.36,0-3.4-.01-6.8-.02-10.21.48-1.24,1.08-1.56,2.49-1.32Z"/><path class="cls-1" d="M286.18,188.47c.28,0,.57.01.85.02.71.29,1.17.8,1.33,1.56-.01,1.01-.03,2.01-.04,3.02-.02,3.7-1.68,6.13-5.13,7.42-.37.14-.51.33-.5.72.03.94.02,1.88.03,2.82,0,1.86-.8,2.52-2.61,2.14-.42-.29-.73-.66-.91-1.14.05-.16.04-.3-.07-.43.04-.99.05-1.98-.03-2.97.02-.39.27-.87-.32-1.06-1.21-.38-2.23-1.07-3.17-1.89-.07-.12-.14-.25-.29-.28-.04-.05-.08-.1-.12-.16-.01-.17-.11-.28-.26-.35-.11-.16-.22-.33-.32-.49,0-.17-.08-.29-.22-.38-.03-.06-.06-.12-.09-.18-.18-.47-.36-.94-.54-1.41l-.05-.27c.05-.12.04-.22-.07-.3-.02-.14-.04-.28-.06-.41,0-1.56,0-3.11,0-4.67.04-.11.08-.21.11-.32.13-.09.22-.21.24-.37l.28-.27c.74-.39,1.49-.38,2.24,0,.1.09.19.18.29.27.02.16.1.28.24.36.07.25.14.5.22.75-.11,1.35-.12,2.71.02,4.05.07.71.31,1.41.93,1.89.03.09.09.15.19.13.24.43.64.62,1.1.72.07.11.17.14.29.1.09.02.18.04.27.06.08.11.18.12.29.07.47.11.94.11,1.4,0,.12.05.21.03.29-.08l.27-.06c.12.04.22,0,.28-.1,1-.32,1.64-.99,1.94-1.99.12-.11.17-.25.12-.41.02-.09.04-.18.06-.28.12-.13.12-.28.05-.43.12-.56.1-1.12.03-1.68,0-.14,0-.29,0-.43.02-.37.06-.75.04-1.12-.06-1.08.38-1.81,1.43-2.15Z"/><path class="cls-1" d="M176.64,188.61c.15.07.29.05.43,0,.14,0,.28.02.42.03.28.11.56.12.86.09l.27.06c.21.16.46.2.72.22.1.04.21.09.31.13.1.13.23.19.39.18,1.04.63,1.77,1.54,2.36,2.58.02.05.03.09.05.14.02.09.03.17.05.26.11.93.31,1.94-.19,2.75-.63,1.01-.42,1.73.38,2.43.03.03.08.04.12.06.22.42.43.84.65,1.26,0,.07-.03.14,0,.21.96,3.38-1.41,6.74-5.06,7.06-2.72.23-5.48.22-8.21-.05-.54-.32-.75-.84-.91-1.41.01-2.53.03-5.06.03-7.59,0-2.32,0-4.64-.01-6.96.18-.62.57-1.05,1.15-1.33.16.03.3,0,.43-.09,1.93,0,3.86-.01,5.79-.02ZM176.64,194.82c.3.01.6.05.9.03.92-.06,1.27-.38,1.43-1.26,0-.82-.24-1.15-1.05-1.29-1.07-.19-2.15-.07-3.22-.08-1.89-.02-1.86,0-1.89,1.9-.01.7.23.88.86.71.99.06,1.98.07,2.97,0ZM179.98,201.05c.09-.18.11-.36.03-.55.07-.15.07-.3,0-.45-.25-1.06-.88-1.56-2.23-1.61-1.48-.05-2.96-.01-4.43-.03-.4,0-.54.15-.53.54.02.96.04,1.93,0,2.88-.04.7.24.88.86.71,1.03.06,2.06.09,3.09-.02.1.06.2.07.31.01,1.5.15,2.35-.22,2.8-1.2.11-.07.14-.17.1-.29Z"/><path class="cls-1" d="M83.76,188.6c.1,0,.2,0,.29,0,.75,0,1.5.02,2.25.03.28.11.56.12.86.09.09.02.18.04.27.06.08.1.18.13.29.08.25.09.49.18.74.27.1.13.23.19.39.18.97.61,1.73,1.42,2.26,2.43-.04.13-.03.24.1.31.31,1.2.36,2.41-.29,3.49-.41.69-.26,1.09.28,1.51.09.07.17.15.26.23.14.36.35.68.59.98-.02.17.06.3.17.41.11.74.31,1.46.24,2.22-.29,2.91-2.72,5.16-5.75,5.23-2.04.05-4.08,0-6.12.02-.54,0-1.07-.01-1.6-.17-.74-.44-.91-1.16-.95-1.94.09-1.28.1-2.55,0-3.83.08-2.68.07-5.35,0-8.03.11-.71.06-1.42.05-2.13.19-.68.64-1.12,1.28-1.37.11.05.21.04.29-.04,1.36,0,2.73.07,4.09-.03ZM83.76,194.81c.95.12,1.9.11,2.85.01.88-.09,1.19-.5,1.19-1.37.08-.76-.41-1.05-1.03-1.16-1.07-.19-2.15-.07-3.23-.08-1.89-.02-1.86,0-1.9,1.9-.01.68.21.9.85.72.43.05.85.08,1.28-.02ZM82.49,202.54c.43.07.85.06,1.28,0,.08,0,.17,0,.25,0,1.05.05,2.1.11,3.13-.05.91-.14,1.55-.62,1.68-1.6.25-1.46-.55-2.39-2.22-2.45-1.48-.06-2.96,0-4.44-.03-.46,0-.55.2-.54.6.02.94.04,1.88,0,2.82-.04.69.21.9.86.71Z"/><path class="cls-1" d="M202.01,189.62c.12.16.27.25.46.3.07.06.14.11.21.17.11.2.27.33.49.41.09.18.23.31.41.41.03.16.12.27.28.33.14.18.27.35.41.53.19.43.39.85.69,1.22.02.06.05.12.07.18-.04.09-.01.15.07.19,0,.04,0,.07.04.1.39,1.51.35,3.06.34,4.6,0,2.04,0,4.08,0,6.12,0,1.83-.91,2.53-2.65,2.04-.23-.21-.46-.41-.69-.62-.39-.93-.13-1.91-.26-2.86.01-.28.02-.56.04-.84.03-.35-.11-.51-.48-.51-2.23,0-4.45.01-6.68,0-.42,0-.51.21-.5.57.02.7,0,1.4,0,2.11,0,1.91-.79,2.56-2.63,2.19-.5-.21-.79-.59-.9-1.11.04-.11.05-.22-.07-.3,0-1.47.1-2.94-.06-4.41,0,0-.02-.03-.02-.03.2-1.62.08-3.24.06-4.86.15-.18.12-.38.07-.58.25-.96.33-1.97.93-2.81.12-.04.15-.13.12-.25.18-.25.37-.49.55-.74.08-.11.31-.07.29-.28.19-.18.38-.36.57-.54.17-.02.28-.12.34-.27.04,0,.07-.02.07-.06.31-.21.62-.42.94-.62.16-.08.32-.15.47-.23,1.37-.52,2.79-.67,4.25-.57.09.02.18.03.27.05.8.27,1.61.54,2.37.91.04.02.09.04.13.06ZM201.81,195.27c.08-.1.06-.18-.04-.24-.04-.32-.12-.62-.31-.88-.49-1.3-1.82-2.06-3.52-2.01-1.74.06-3.01.95-3.48,2.46-.25.8-.15,1.63-.21,2.44-.05.7.18.96.87.77,2.12.01,4.25.02,6.37.04.3,0,.43-.11.41-.41-.03-.72.06-1.45-.08-2.16Z"/><path class="cls-1" d="M252.91,189.41c.18-.11.35-.25.45-.44.16-.08.32-.17.48-.25.16.03.3,0,.43-.09,2.07,0,4.14,0,6.22,0,.47.07.94.15,1.41.22.09.02.19.04.28.06.08.09.17.13.29.09.11.04.21.09.32.13.1.13.23.18.39.17,1.08.61,2.01,1.37,2.64,2.47.19.15.07.45.29.58.87,2.72.29,5.01-1.67,6.72-.41.36-1.21.47-1.21,1.03,0,.49.5.98.78,1.47.02.03.07.05.11.07l1.36,2.24c.08,1.31-.3,2-1.23,2.29-.53.16-1.01-.01-1.5-.15-.28-.34-.56-.67-.84-1.01-.09-.35-.29-.62-.55-.85-.38-.82-.9-1.56-1.4-2.31-.33-.93-.87-1.51-1.96-1.3-.36.07-.75.04-1.12,0-.51-.05-.64.18-.63.66.03.96.01,1.92,0,2.88,0,1.82-.89,2.5-2.66,2.06-.13-.09-.27-.18-.4-.27-.01-.15-.11-.23-.25-.28-.21-.51-.26-1.04-.26-1.59,0-1.17-.03-2.35-.05-3.52.07-.08.08-.17.02-.26.01-1.38.05-2.76.03-4.14-.02-1.45.09-2.9-.07-4.34.17-.77-.06-1.59.3-2.33ZM262.83,193.87c-.28-1.01-1.02-1.57-2.33-1.63-1.24-.06-2.48,0-3.73-.04-.47-.01-.54.2-.53.6.02,1.15.04,2.3,0,3.44-.03.69.21.9.85.72,1.23.05,2.46.11,3.68-.04,1.7-.2,2.52-1.4,2.06-3.05Z"/><path class="cls-1" d="M41.13,188.85c.33-.07.66-.15.99-.22.14-.02.28-.04.41-.06.62,0,1.24,0,1.86,0l.56.05c.13.1.27.14.43.09.09.02.18.04.27.06.08.09.18.12.29.07.09.02.18.05.27.07.07.1.17.14.29.11.1.04.21.08.31.13.11.12.23.18.39.16.85.45,1.66.97,2.4,1.59.09.25.29.38.52.49.05.16.14.3.29.38.1.22.22.42.43.56.29.52.58,1.03.87,1.55.08.29.17.58.25.87.95,3.5.26,6.62-2.4,9.11-2.67,2.49-5.82,2.96-9.25,1.78-1.25-.43-2.25-1.24-3.24-2.07-.16-.17-.31-.35-.47-.52-.02-.16-.11-.27-.26-.34-.4-.73-.79-1.46-1.19-2.19.03-.12.03-.22-.09-.29-.13-.65-.27-1.31-.4-1.96.09-.11.1-.21-.03-.3.06-.38.07-.75-.01-1.13.15-.13.12-.28.05-.44.12-.56.23-1.13.35-1.69.1-.07.14-.16.1-.28.39-.76.77-1.51,1.16-2.27.53-.56,1.06-1.11,1.59-1.67.17-.02.28-.11.35-.26.1-.01.18-.05.21-.16.26-.07.48-.19.64-.4h.04s.02-.03.02-.03c.13.01.22-.03.28-.15.17,0,.3-.08.42-.18.16.02.29-.04.39-.16l.32-.11c.12.04.22,0,.29-.1.09-.02.19-.04.28-.06ZM39.71,201.09c.4.54.93.89,1.57,1.1.11.15.26.16.43.13.12.11.26.16.42.14.08.08.17.13.29.07.22.1.46.1.7.07.28.11.56.1.84,0,.24.02.47.03.7-.07.35,0,.66-.09.96-.26.42-.15.84-.31,1.16-.65.16-.02.27-.11.32-.26.26-.12.42-.32.54-.57.22-.13.35-.33.4-.58.18-.22.31-.47.37-.75.12-.11.16-.24.11-.39.03-.09.05-.18.08-.27.1-.08.13-.17.07-.29.08-.18.09-.37.06-.56.14-.37.14-.74,0-1.11.03-.19.02-.38-.06-.56.06-.12.03-.21-.07-.29-.03-.09-.05-.18-.08-.28.05-.15,0-.28-.12-.39-.02-.19-.1-.34-.23-.47,0-.15-.05-.27-.2-.33v-.03c.02-.16-.09-.26-.17-.37-1.32-1.7-3.12-2.19-5.16-1.92-1.86.24-3.29,1.22-3.95,3-.69,1.84-.67,3.68.57,5.35.1.22.19.45.45.53Z"/><path class="cls-1" d="M217.13,195.34c.72.06,1.44.12,2.16-.04.38.11.75.04,1.11-.08.31,0,.57-.09.77-.35.38-.2.6-.52.71-.93.13-.1.16-.23.11-.39.11-.22.12-.46.09-.7.13-.69.06-1.38.06-2.07,0-.62.06-1.2.38-1.73.05-.05.1-.1.14-.15.93-.6,1.82-.52,2.67.18-.02.17.09.27.17.39.07.19.14.39.2.58,0,.7-.03,1.4-.02,2.11,0,1.11-.09,2.19-.55,3.23-.18.4-.69.76-.53,1.16.16.39.63.66.96.98.26.43.52.86.77,1.29.13.35.3.69.38,1.05.36,1.66.24,3.35.15,5.02-.05.83-.83,1.4-1.68,1.38-.32,0-.64-.09-.96-.14-.67-.51-.91-1.19-.88-2.01.03-.79.01-1.59,0-2.38,0-.44.03-.89-.22-1.29-.26-.93-.92-1.46-2.03-1.5-1.45-.05-2.91,0-4.37-.03-.48,0-.52.24-.52.62.01,1.5,0,3.01,0,4.51,0,1.89-.89,2.56-2.69,2.07-.67-.49-.9-1.15-.88-1.96.02-1.17-.02-2.34-.03-3.52.07-.15.05-.29,0-.43.08-2.68.07-5.36,0-8.03.06-.14.06-.29,0-.43.01-.61.03-1.22.04-1.83.1-.08.12-.18.08-.29.29-.57.72-.97,1.35-1.13.08.08.16.07.22-.03.12,0,.23,0,.35.01.07.09.15.1.24.03.83.24,1.21.86,1.4,1.65-.16,1.46-.04,2.92-.07,4.38-.02.86,0,.86.91.8Z"/><path class="cls-1" d="M111.57,188.66c.19-.02.37-.03.56-.05,2.54.09,5.09.07,7.63,0,.19.01.37.02.56.03.47.17.89.43,1.23.79v.04s.04.02.04.02c.06.19.12.38.18.58-.02,1.57-.6,2.13-2.19,2.14-1.74,0-3.48,0-5.21,0-.41,0-.61.1-.59.55.03.7.01,1.41,0,2.11,0,.28.03.51.4.52,1.62.02,3.23.08,4.85-.03.16.02.32.05.47.07.04.08.09.16.21.14.49.11.73.49.96.87.28,1.8-.35,2.51-2.21,2.51-1.34,0-2.68.02-4.02-.01-.54-.01-.7.17-.67.69.04.73.05,1.46,0,2.18-.06.74.24.93.9.75.94.05,1.88.07,2.82-.01.15.06.3.07.44,0,.61.01,1.22.03,1.82.04,1.17.02,1.62.34,2.04,1.45-.08,1.58-.64,2.11-2.23,2.11-1.89,0-3.79,0-5.68,0-.91,0-1.82.09-2.72-.14-.56-.17-.65-.71-.91-1.12.04-.16.04-.31-.08-.44.04-1.27.07-2.54-.01-3.81.07-.14.06-.28,0-.42.08-2.68.08-5.36,0-8.04.07-.14.07-.28,0-.42.08-.47.06-.94.02-1.41.12-.13.12-.28.08-.44.2-.51.53-.9,1.03-1.15.12.03.22,0,.29-.09Z"/><path class="cls-1" d="M134.43,188.58c.66,0,1.32,0,1.99-.01.14.02.28.04.42.06.13.1.27.13.43.09.09.02.18.04.27.06.21.15.45.23.71.24.25.12.5.25.76.37.09.14.21.21.37.2.73.58,1.59,1.06,1.75,2.12-.43,2.01-1.71,2.43-3.35,1.15-1.23-.96-2.62-.92-4.01-.48-.61.19-.81.75-.81,1.35,0,.6.2,1.1.85,1.29.12.12.26.2.43.19.11.17.27.19.45.15.31.1.62.21.94.29,1.2.31,2.43.53,3.59,1.02,1.27.53,2.23,1.36,2.71,2.68.01.14.02.28.04.42.33,1.85-.12,3.47-1.55,4.71-2.05,1.78-4.45,2.04-7,1.44-1.33-.32-2.4-1.12-3.45-1.96-.82-.9-1.45-1.85-.62-3.08.24-.18.48-.36.72-.54l.41-.07c.19.06.39.06.58.01.09.02.18.03.27.05.23.16.46.31.68.47.61.83,1.33,1.52,2.42,1.66.08.11.18.12.29.08.84.19,1.69.15,2.5-.11.65-.21,1.2-.57,1.19-1.38.07-.76-.17-1.06-1.26-1.34-2.27-.57-4.59-.98-6.54-2.43-1.24-1.52-1.52-3.23-1.03-5.1.12-.13.17-.28.16-.45.67-1.26,1.67-2.16,2.97-2.73.25-.03.5-.07.72-.23.09-.02.18-.04.27-.07.12.05.21.02.29-.08.14-.02.28-.04.42-.06Z"/><path class="cls-1" d="M59.44,191.74c.02-.56.03-1.12.06-1.69.04-.79.68-1.44,1.49-1.55.9-.12,1.62.31,1.9,1.17.15.35.15.72.15,1.1,0,3.68.01,7.37-.01,11.05,0,.66.17.93.84.71.98.08,1.96.08,2.95,0,.1,0,.2,0,.3,0,.63.02,1.26.06,1.88.05.9-.02,1.6.27,1.94,1.17-.03.1,0,.16.1.19.02.08.04.16.06.24-.19,1.51-.72,1.98-2.25,1.98-2.32,0-4.63,0-6.95,0-.52,0-1.03-.02-1.52-.18-.67-.48-.92-1.13-.91-1.94.02-1.12-.02-2.25-.03-3.38.06-.15.05-.29,0-.44.07-2.68.07-5.35,0-8.03.06-.15.06-.29,0-.44Z"/><path class="cls-1" d="M150.02,193.81c-.68-.34-.88-.94-.95-1.63.06-.15.06-.29,0-.44.01-.49.06-.97.03-1.46-.05-.9.31-1.52,1.15-1.86.49-.04.94.08,1.39.26.31.36.5.77.59,1.23-.02.65-.04,1.3-.05,1.95-.01,1.56-.61,2.11-2.16,1.94Z"/><path class="cls-1" d="M103.25,190.06c-.01,2.02-.03,4.03-.04,6.05,0,2.63,0,5.26,0,7.89,0,2.01-1.04,2.72-2.9,2-.47-.35-.59-.87-.68-1.41,0-4.11.02-8.22.03-12.33,0-.63.02-1.27,0-1.9-.02-.55.24-.98.47-1.44.14-.1.28-.2.42-.31.17.05.3-.04.43-.14.28,0,.57,0,.85.01.08.09.18.12.29.09.62.31.97.82,1.13,1.48Z"/><path class="cls-1" d="M245.56,204.17c-.21,1.52-.72,1.97-2.27,1.97-2.3,0-4.61,0-6.91,0-.52,0-1.03-.02-1.53-.17-.67-.48-.93-1.13-.91-1.95.02-1.13-.02-2.25-.03-3.38.06-.15.05-.29,0-.44.07-2.68.06-5.35,0-8.03.06-.15.06-.29,0-.44.01-.35.05-.69.03-1.04-.04-.91.32-1.57,1.14-1.97.16.03.3,0,.43-.1.09,0,.19-.01.28-.02.15.07.29.04.43-.01,2.59.01,5.17.03,7.76.04.23.06.45.13.68.19.45.36.76.8.9,1.37-.16,1.52-.7,2-2.22,2-1.73,0-3.47.02-5.2,0-.49,0-.67.15-.64.64.04.56,0,1.12,0,1.69q0,.91.96.81c1.31.01,2.62.04,3.93.03.72,0,1.34.17,1.83.7.68,1.9-.02,2.87-2.06,2.87-1.29,0-2.59.03-3.88-.01-.6-.02-.86.12-.8.77.06.68.01,1.36.01,2.04q0,.9.95.82c.26,0,.51.02.77.03,1.73.04,3.46-.09,5.18.08.04.1.12.14.22.1.49.35.79.83.93,1.41Z"/></svg>